<?xml version="1.0" encoding="UTF-8"?>
<svg xmlns="http://www.w3.org/2000/svg" version="1.1" viewBox="0 0 24 24">
  <defs>
    <style>
      .cls-1 {
        fill: #666;
      }
    </style>
  </defs>
  <!-- Generator: Adobe Illustrator 28.7.3, SVG Export Plug-In . SVG Version: 1.2.0 Build 164)  -->
  <g>
    <g id="_레이어_1" data-name="레이어_1">
      <path class="cls-1" d="M10.6,16.6l7.1-7.1-1.4-1.4-5.7,5.7-2.9-2.9-1.4,1.4,4.3,4.3ZM12,22c-1.4,0-2.7-.3-3.9-.8s-2.3-1.2-3.2-2.1-1.6-2-2.1-3.2-.8-2.5-.8-3.9.3-2.7.8-3.9,1.2-2.3,2.1-3.2,2-1.6,3.2-2.1,2.5-.8,3.9-.8,2.7.3,3.9.8,2.3,1.2,3.2,2.1,1.6,2,2.1,3.2.8,2.5.8,3.9-.3,2.7-.8,3.9-1.2,2.3-2.1,3.2-2,1.6-3.2,2.1-2.5.8-3.9.8ZM12,20c2.2,0,4.1-.8,5.7-2.3s2.3-3.4,2.3-5.7-.8-4.1-2.3-5.7-3.4-2.3-5.7-2.3-4.1.8-5.7,2.3-2.3,3.4-2.3,5.7.8,4.1,2.3,5.7,3.4,2.3,5.7,2.3Z"/>
    </g>
  </g>
</svg>